<?xml version="1.0" encoding="UTF-8" standalone="no"?>
<svg width="200px" height="60px" viewBox="0 0 200 60" version="1.1" xmlns="http://www.w3.org/2000/svg" xmlns:xlink="http://www.w3.org/1999/xlink">
    <!-- Generator: Sketch 46.2 (44496) - http://www.bohemiancoding.com/sketch -->
    <title>btn-Bazaar</title>
    <desc>Created with Sketch.</desc>
    <defs></defs>
    <g id="Symbols" stroke="none" stroke-width="1" fill="none" fill-rule="evenodd">
        <g id="btn-Bazaar" fill-rule="nonzero">
            <g>
                <path d="M7.40740741,59.2592593 C3.25925926,59.2592593 0,56 0,51.8518519 L0,7.40740741 C0,3.25925926 3.25925926,0 7.40740741,0 L192.592593,0 C196.740741,0 200,3.25925926 200,7.40740741 L200,51.8518519 C200,55.8518519 196.740741,59.2592593 192.592593,59.2592593 L7.40740741,59.2592593 Z" id="Shape" fill="#000000"></path>
                <path d="M192.592593,1.18518519 C196,1.18518519 198.814815,4 198.814815,7.40740741 L198.814815,51.8518519 C198.814815,55.2592593 196,58.0740741 192.592593,58.0740741 L7.40740741,58.0740741 C4,58.0740741 1.18518519,55.2592593 1.18518519,51.8518519 L1.18518519,7.40740741 C1.18518519,4 4,1.18518519 7.40740741,1.18518519 L192.592593,1.18518519 L192.592593,1.18518519 Z M192.592593,0 L7.40740741,0 C3.25925926,0 0,3.25925926 0,7.40740741 L0,51.8518519 C0,56 3.25925926,59.2592593 7.40740741,59.2592593 L192.592593,59.2592593 C196.740741,59.2592593 200,56 200,51.8518519 L200,7.40740741 C200,3.40740741 196.740741,0 192.592593,0 L192.592593,0 L192.592593,0 Z" id="Shape" fill="#A6A6A6" opacity="0.400000006"></path>
                <path d="M46.8396775,26.1085092 L46.8396775,22.5632544 L46.8396775,18.9667674 C46.8396775,18.1829178 47.1075261,17.5117785 47.648277,16.963596 C48.189028,16.4154135 48.8460151,16.1438839 49.6192385,16.1438839 C50.3621393,16.1438839 50.9989114,16.4102904 51.5396624,16.93798 C52.0804133,17.4656696 52.3634233,18.1111929 52.3987994,18.8643034 L52.3987994,19.1204634 L52.3987994,19.3253916 L52.3987994,25.6166819 L52.3987994,31.9592044 C52.3987994,32.3690604 52.489767,32.6662061 52.6767556,32.8557644 C52.8637441,33.045323 53.1568615,33.1375406 53.5611613,33.1375406 L55.7595413,33.1375406 L57.907384,33.1375406 C58.7513597,33.173403 59.4386693,33.4603022 59.9794203,34.0084846 C60.5201713,34.5566671 60.7728587,35.243176 60.7374824,36.0628881 C60.7374824,36.7801363 60.4847951,37.4102899 59.9794203,37.9379796 C59.4740456,38.4656692 58.867596,38.7320757 58.1600713,38.7320757 C57.1139456,38.7679381 56.088035,38.7833077 55.0772855,38.7833077 C54.066536,38.7833077 53.0557867,38.7679381 52.0450372,38.7320757 C50.7664391,38.6962133 49.6293459,38.2043861 48.6337578,37.2412243 C47.6381696,36.2831858 47.0569886,35.1509584 46.890215,33.8496655 C46.890215,33.6805999 46.8801076,33.5166573 46.8649462,33.3629613 C46.849785,33.2092653 46.8396775,33.045323 46.8396775,32.8762573 L46.8396775,29.4846985 L46.8396775,26.1085092 L46.8396775,26.1085092 L46.8396775,26.1085092 L46.8396775,26.1085092 L46.8396775,26.1085092 Z M44.0095791,31.8106316 L44.0095791,33.839419 L44.0095791,35.8682065 C44.0095791,37.5127539 43.4688281,38.8857717 42.39238,39.9770135 C41.3159317,41.0682553 39.9817425,41.6215609 38.3999196,41.6215609 L35.5950899,41.6215609 L32.7902601,41.6215609 C32.1484342,41.5856985 31.5874683,41.3654009 31.0972548,40.9555447 C30.6070413,40.5456887 30.2987628,40.0179991 30.1623116,39.3622293 C30.0612367,38.7115828 30.1471504,38.0916756 30.414999,37.5127539 C30.6828476,36.9338323 31.1225236,36.518853 31.7289733,36.2780625 C31.9311231,36.1755985 32.1433806,36.1089969 32.3606917,36.0731345 C32.5780028,36.0372721 32.7902601,36.0219025 32.9924101,36.0219025 C33.6999347,35.9860401 34.4074593,35.9706705 35.1149839,35.9706705 L37.2375578,35.9706705 C37.7075563,35.9706705 38.0360498,35.8835761 38.2230385,35.7145105 C38.4100271,35.5454449 38.5009945,35.21756 38.5009945,34.7411024 L38.5009945,31.1446154 L38.5009945,27.5481286 C38.5009945,26.866743 38.6930369,26.2622052 39.0821756,25.7498852 C39.4713141,25.237565 39.9817425,24.8943107 40.6235684,24.7201218 C41.4978667,24.5151938 42.2811975,24.6842594 42.9735609,25.2324419 C43.6659243,25.7806243 44.0095791,26.5029957 44.0095791,27.3893093 L44.0095791,29.6230249 L44.0095791,31.8106316 L44.0095791,31.8106316 L44.0095791,31.8106316 L44.0095791,31.8106316 L44.0095791,31.8106316 L44.0095791,31.8106316 Z M35.6708961,23.2292704 L35.6708961,26.8001413 C35.6708961,26.8001413 35.6557348,27.9733542 35.6203587,30.3197801 C35.6203587,31.3854059 35.1756289,32.1795021 34.2811156,32.7071917 C33.3866024,33.2348813 32.4870354,33.2604973 31.5773609,32.7840397 C31.1376849,32.5432492 30.7940301,32.2204876 30.5413427,31.8106316 C30.2886553,31.4007756 30.1471504,30.9396874 30.1117742,30.4222441 L30.1117742,30.0380041 L30.1117742,29.7049961 L30.1117742,22.9731104 L30.1117742,16.2463479 C30.1117742,15.5957013 30.2886553,15.0116566 30.6424176,14.4993365 C30.9961799,13.9870164 31.4762859,13.6437619 32.0827356,13.4695731 C32.9570338,13.1980435 33.7656333,13.3312467 34.5085342,13.8794292 C35.2514351,14.4276116 35.6355199,15.1653526 35.6708961,16.0875286 L35.6708961,19.6583996 L35.6708961,23.2292704 L35.6708961,23.2292704 L35.6708961,23.2292704 L35.6708961,23.2292704 L35.6708961,23.2292704 Z M44.0095791,18.9667674 C44.0095791,19.7198779 43.7417305,20.3807708 43.2009796,20.944323 C42.6602286,21.507875 42.0234564,21.789651 41.2805556,21.789651 C40.5073321,21.789651 39.850345,21.5181213 39.3095941,20.969939 C38.7688431,20.4217564 38.5009945,19.7506172 38.5009945,18.9667674 C38.5009945,18.2136569 38.7688431,17.552764 39.3095941,16.989212 C39.850345,16.4256599 40.4871172,16.1438839 41.2300181,16.1438839 C42.0032413,16.1438839 42.6602286,16.4154135 43.2009796,16.963596 C43.7417305,17.5117785 44.0095791,18.1829178 44.0095791,18.9667674 L44.0095791,18.9667674 L44.0095791,18.9667674 L44.0095791,18.9667674 L44.0095791,18.9667674 Z M49.568701,41.6215609 C49.568701,42.4054105 49.3008524,43.0765499 48.7601015,43.6247323 C48.2193505,44.1729148 47.5825784,44.4444444 46.8396775,44.4444444 C46.0664542,44.4444444 45.4094671,44.1729148 44.8687161,43.6247323 C44.3279652,43.0765499 44.0601166,42.4054105 44.0601166,41.6215609 C44.0601166,40.8684504 44.3279652,40.2178039 44.8687161,39.6696215 C45.4094671,39.121439 46.0664542,38.8499093 46.8396775,38.8499093 C47.6129009,38.8499093 48.2648342,39.1163157 48.7853702,39.6440053 C49.3059062,40.1716951 49.568701,40.832588 49.568701,41.6215609 L49.568701,41.6215609 L49.568701,41.6215609 L49.568701,41.6215609 L49.568701,41.6215609 Z M27.2816757,21.635955 C27.2462994,20.7803804 26.8773759,20.0836252 26.1698513,19.5559356 C25.4623267,19.0282459 24.7042646,18.8643034 23.895665,19.0692314 C23.2538391,19.238297 22.7434107,19.5713052 22.3542721,20.0733788 C21.9651336,20.5754524 21.7730913,21.1799901 21.7730913,21.8972382 C21.737715,23.0960673 21.7326612,24.3000194 21.7478225,25.5193412 C21.7629837,26.7386628 21.7730913,27.9579846 21.7730913,29.192676 C21.7730913,29.5666696 21.6821237,29.8484456 21.4951351,30.0380041 C21.3081465,30.2275625 21.0150292,30.3197801 20.6107293,30.3197801 L18.3870806,30.3197801 L16.1634319,30.3197801 C16.0623569,30.3197801 15.9713893,30.3300265 15.8854757,30.3453961 C15.7995619,30.3607658 15.7237557,30.3710121 15.658057,30.3710121 C14.9859087,30.4734761 14.4299965,30.7808683 13.9903205,31.2931883 C13.5506445,31.8055083 13.3333333,32.4100461 13.3333333,33.0914317 C13.3333333,33.6396142 13.459677,34.1314415 13.7123644,34.5566671 C13.9650517,34.9818927 14.3087065,35.3149009 14.7483826,35.5608145 L14.7736513,35.5608145 C14.7736513,35.5608145 14.79892,35.576184 14.8494575,35.6120465 C14.8848338,35.6120465 14.9151561,35.6222929 14.9505324,35.6376625 L15.1021449,35.7145105 C15.2689185,35.7811121 15.4457997,35.8323441 15.6327883,35.8682065 C15.819777,35.9040689 16.0118194,35.9194385 16.2139692,35.9194385 C16.5525704,35.9553009 16.9063326,35.9706705 17.2752561,35.9706705 L18.3365431,35.9706705 C19.0086914,35.9348081 19.6858936,35.9296849 20.3580419,35.9450545 C21.0301904,35.9604241 21.7073924,35.9348081 22.3795409,35.8682065 C23.6935151,35.7657425 24.8306083,35.2021904 25.7908203,34.1724271 C26.7510323,33.1426637 27.2462994,31.9643276 27.2816757,30.6271721 L27.2816757,26.1341252 L27.2816757,21.635955 L27.2816757,21.635955 L27.2816757,21.635955 L27.2816757,21.635955 L27.2816757,21.635955 Z" id="Shape" fill="#FFFFFF"></path>
                <path d="M138.218841,32.5913083 C137.961774,32.5913083 137.657581,32.5634812 137.306256,32.5078264 C136.95493,32.4521716 136.606465,32.3784301 136.260852,32.2865996 C135.915239,32.194769 135.595337,32.0904178 135.301138,31.9735427 C135.006938,31.8566676 134.785577,31.7397941 134.637049,31.622919 L135.211164,30.345647 C135.416819,30.4625221 135.649604,30.5738301 135.909528,30.6795742 C136.169452,30.7853184 136.44651,30.8785388 136.740709,30.9592384 C137.034909,31.0399379 137.336245,31.1053314 137.644726,31.1554207 C137.953208,31.2055101 138.255972,31.2305544 138.553028,31.2305544 C138.975761,31.2305544 139.377066,31.173509 139.756955,31.0594166 C140.136844,30.9453241 140.449605,30.7407957 140.695248,30.445825 C140.895189,30.2065093 140.976593,29.9184999 140.939461,29.5817881 C140.902329,29.2450763 140.788078,28.8874994 140.596706,28.5090465 C140.405333,28.1305936 140.158266,27.746581 139.855497,27.3569972 C139.552729,26.9674133 139.232827,26.6014883 138.895783,26.2592111 C138.558739,25.9169339 138.227412,25.615011 137.901793,25.3534332 C137.576174,25.0918554 137.293403,24.8970665 137.053474,24.7690603 C137.156301,24.546441 137.250557,24.3405212 137.336247,24.1512948 C137.421936,23.9620683 137.513336,23.7617139 137.610451,23.5502256 C137.924645,23.7171901 138.243118,23.9231099 138.565881,24.1679911 C138.888644,24.4128724 139.204261,24.6827944 139.512742,24.9777649 C139.821223,25.2727356 140.115419,25.5871806 140.395337,25.9211096 C140.675255,26.2550387 140.929463,26.5973108 141.157967,26.9479363 C141.386472,27.2985616 141.584982,27.6491819 141.753504,27.9998074 C141.922027,28.3504327 142.046274,28.6899222 142.126251,29.0182858 C142.166239,29.2019467 142.194802,29.393953 142.21194,29.5943104 C142.229077,29.7946679 142.224793,29.9922396 142.199086,30.1870314 C142.173379,30.3818234 142.124823,30.5724382 142.053415,30.7588819 C141.982008,30.9453256 141.877754,31.1164618 141.740651,31.2722953 C141.232228,31.8678021 140.526731,32.2601627 139.624138,32.4493892 C139.424196,32.4994785 139.205692,32.5356536 138.968618,32.5579156 C138.731545,32.5801775 138.481622,32.5913083 138.218841,32.5913083 L138.218841,32.5913083 Z M132.314883,27.5490055 C132.469124,28.0665954 132.611937,28.5702641 132.743327,29.0600267 C132.800453,29.271515 132.857578,29.4885656 132.914705,29.7111849 C132.971831,29.9338043 133.024672,30.1550289 133.073229,30.3748655 C133.121786,30.5947021 133.166058,30.8061874 133.206047,31.0093276 C133.246035,31.2124677 133.277454,31.3975172 133.300304,31.5644816 C133.300304,31.6312676 133.304589,31.6994437 133.313157,31.7690121 C133.321726,31.8385807 133.326011,31.9206704 133.326011,32.0152836 C133.326011,32.4772187 133.256032,32.9280161 133.116073,33.3676893 C132.976114,33.8073625 132.783316,34.2289416 132.537674,34.6324391 C132.292031,35.0359366 131.999264,35.422732 131.659364,35.7928366 C131.319463,36.1629413 130.949577,36.5121701 130.549694,36.8405336 C130.149811,37.1688972 129.725655,37.4736028 129.277215,37.7546597 C128.828775,38.0357166 128.3732,38.2903336 127.910479,38.5185185 L127.319226,37.3497729 C127.91905,37.0492367 128.498872,36.7055733 129.058708,36.3187721 C129.618545,35.9319711 130.115535,35.5117834 130.549694,35.0581964 C130.983852,34.6046096 131.332317,34.1218111 131.595097,33.6097867 C131.857877,33.0977622 131.989265,32.5662665 131.989265,32.0152836 C131.989265,31.9596287 131.986409,31.9039748 131.980697,31.84832 C131.974984,31.792665 131.969271,31.7342284 131.963559,31.6730081 C131.940708,31.4670852 131.905005,31.2430778 131.856448,31.0009793 C131.807891,30.7588807 131.752193,30.5112204 131.689355,30.257991 C131.626516,30.0047615 131.560822,29.7571012 131.49227,29.5150027 C131.423719,29.2729041 131.358025,29.0475055 131.295186,28.8387999 C131.232347,28.6300942 131.175222,28.4478273 131.123809,28.2919938 C131.072395,28.1361603 131.035264,28.0192868 131.012413,27.9413701 L132.314883,27.5490055 Z M125.057041,35.6467434 L123.805985,36.8655782 L122.537791,35.6383953 L123.788847,34.4112123 L125.057041,35.6467434 Z M122.747062,31.2971271 C123.040639,31.2958646 123.360763,31.2889787 123.707443,31.2764693 C124.093044,31.2625557 124.465787,31.2208151 124.825682,31.1512467 C125.185576,31.0816781 125.509763,30.9731527 125.79825,30.8256674 C126.086737,30.6781821 126.29096,30.4736536 126.410924,30.212076 L126.410924,30.2204241 C126.502326,30.0367633 126.548027,29.7918856 126.548027,29.485784 C126.548027,29.2242062 126.508039,28.9292401 126.428062,28.6008766 C126.348086,28.272513 126.24526,27.9135447 126.119583,27.5239609 C126.073882,27.3848239 126.018184,27.2345581 125.952489,27.073159 C125.886794,26.91176 125.822528,26.7545375 125.75969,26.6014867 C125.696851,26.4484359 125.635441,26.3079095 125.575459,26.1799034 C125.515476,26.0518972 125.468348,25.9489373 125.434072,25.8710206 L126.650853,25.2782996 C126.685129,25.3562163 126.730829,25.4563935 126.787955,25.5788341 C126.845081,25.7012748 126.907919,25.8431924 126.976471,26.0045916 C127.045022,26.1659905 127.115,26.3413006 127.186408,26.5305271 C127.257816,26.7197535 127.327794,26.9173252 127.396346,27.1232481 C127.544874,27.5740523 127.656268,27.99424 127.730532,28.3838239 C127.804796,28.7734077 127.841927,29.1351587 127.841927,29.4690877 C127.841927,29.9588502 127.761952,30.3846033 127.601999,30.7463597 C127.402057,31.15264 127.129284,31.5018689 126.783671,31.7940567 C126.438057,32.0862446 126.025327,32.2963385 125.545468,32.4243446 C125.39694,32.4688684 125.20557,32.5022609 124.971353,32.5245228 C124.737135,32.5467847 124.495781,32.5634809 124.247282,32.5746119 C123.998784,32.5857428 123.763142,32.5926996 123.54035,32.5954824 C123.317558,32.598265 123.143325,32.5996564 123.017648,32.5996564 L121.69804,32.5996564 C121.515237,32.5996564 121.358142,32.5370456 121.226752,32.4118224 C121.208349,32.3942827 121.191234,32.3761699 121.175408,32.3574839 C120.795587,32.2212904 120.472805,32.0237434 120.207055,31.7648381 C120.029964,31.5923081 119.894292,31.4058673 119.800033,31.2055098 C119.705775,31.0051524 119.637225,30.8075807 119.59438,30.6127887 C119.551536,30.4179969 119.527257,30.231556 119.521545,30.0534604 C119.515832,29.875365 119.512976,29.7223164 119.512976,29.5943104 L119.512976,29.4440431 C119.518689,29.3494299 119.525829,29.1003782 119.534398,28.6968807 C119.542967,28.2933831 119.547252,27.7994539 119.547252,27.2150781 C119.547252,27.0091553 119.545823,26.7754084 119.542967,26.5138307 C119.540111,26.252253 119.535826,26.0045927 119.530114,25.7708424 C119.530114,25.3311692 119.524401,24.8622841 119.512976,24.3641735 C119.501551,23.8660627 119.484413,23.3804815 119.461563,22.9074154 C119.438712,22.4343493 119.411578,21.9919 119.380158,21.5800542 C119.348739,21.1682084 119.310179,20.8287191 119.264479,20.5615759 L120.601224,20.3278268 C120.652637,20.6227973 120.695481,20.9706348 120.729757,21.3713496 C120.764033,21.7720644 120.791167,22.203383 120.811161,22.6653181 C120.831155,23.1272532 120.846865,23.607269 120.85829,24.1053797 C120.869715,24.6034905 120.875428,25.0918544 120.875428,25.5704859 C120.881141,25.893284 120.885425,26.2063378 120.888281,26.5096566 C120.891137,26.8129754 120.892566,27.1037676 120.892566,27.3820418 C120.892566,27.810584 120.891137,28.1862484 120.888281,28.5090465 C120.885425,28.8318446 120.881141,29.0767222 120.875428,29.2436867 L120.875428,29.4607394 L120.875428,29.6110068 C120.869715,29.8781499 120.88114,30.1132881 120.909703,30.3164283 C120.938267,30.5195684 121.029667,30.6934871 121.183908,30.8381898 C121.326723,30.9773268 121.529518,31.0872434 121.792298,31.167943 C122.051979,31.2476905 122.37023,31.2907516 122.747062,31.2971271 Z M128.098994,35.6634397 L126.856506,36.8822745 L125.588312,35.6467434 L126.839368,34.4279086 L128.098994,35.6634397 Z M111.368405,31.2941844 C111.978085,31.2857421 112.52644,31.2603581 113.01348,31.2180321 C113.621874,31.16516 114.153139,31.0761136 114.607292,30.9508902 C115.061445,30.8256668 115.447041,30.6600961 115.764091,30.4541733 C116.081141,30.2482504 116.348202,29.9950247 116.565281,29.6944886 L115.245674,29.6944886 C114.95433,29.6944886 114.670132,29.6708357 114.39307,29.623529 C114.116008,29.5762224 113.85466,29.506655 113.609017,29.4148244 C113.363375,29.3229939 113.139158,29.2116859 112.93636,29.080897 C112.733563,28.9501083 112.560759,28.8012338 112.417943,28.6342693 C112.315116,28.5507871 112.229428,28.4269569 112.160877,28.2627751 C112.092325,28.0985933 112.038056,27.9163265 111.998068,27.7159692 C111.95808,27.5156117 111.936658,27.3096919 111.933801,27.0982036 C111.930945,26.8867151 111.943798,26.6919262 111.972361,26.5138307 C112.046625,26.1075504 112.159448,25.7318859 112.310832,25.3868259 C112.462216,25.0417659 112.643589,24.7356689 112.854956,24.4685258 C113.094886,24.1624241 113.361947,23.93146 113.656146,23.7756265 C113.950346,23.619793 114.257395,23.5418773 114.577301,23.5418773 C115.279953,23.5418773 115.922612,23.850757 116.505299,24.4685258 C116.728091,24.7078415 116.92803,24.9805461 117.105121,25.2866477 C117.282212,25.5927493 117.432166,25.9197166 117.554987,26.2675593 C117.677808,26.6154019 117.772065,26.9785443 117.83776,27.3569972 C117.903455,27.7354501 117.936302,28.11668 117.936302,28.5006984 C117.936302,29.0516812 117.850614,29.5372624 117.679236,29.9574564 C117.507857,30.3776504 117.269359,30.7407927 116.963734,31.0468944 C116.658109,31.3529959 116.292507,31.6062216 115.866917,31.806579 C115.441328,32.0069364 114.9729,32.1669416 114.461621,32.2865996 C113.950342,32.4062575 113.403367,32.4897385 112.820681,32.537045 C112.427698,32.5689502 112.028223,32.5888305 111.62225,32.5966861 C111.599447,32.5986664 111.576193,32.5996564 111.552486,32.5996564 L111.483935,32.5996564 C111.473974,32.5995404 111.464032,32.5994043 111.454107,32.599248 C111.31344,32.6008151 111.171999,32.6009513 111.029785,32.5996564 L110.884114,32.5996564 C110.769826,32.5996564 110.665588,32.5746403 110.571397,32.5246074 C109.593802,32.36582 108.844014,31.9567329 108.322019,31.2973399 L108.31345,31.2889917 C108.09637,31.0385449 107.899288,30.6684458 107.722197,30.1786833 C106.116952,31.8093699 103.714833,32.624701 100.515769,32.624701 C98.8076967,32.6135701 97.3967019,32.418781 96.2827419,32.0403281 C95.1687819,31.6618753 94.3633153,31.0635948 93.8663176,30.2454687 C93.6663761,29.9226707 93.524991,29.5887467 93.4421581,29.2436867 C93.3593252,28.8986267 93.3179093,28.5563547 93.3179093,28.2168601 C93.3179093,28.0053717 93.3321907,27.7980606 93.3607538,27.5949204 C93.3893167,27.3917803 93.4264483,27.2011653 93.4721492,27.0230699 C93.5692637,26.6334861 93.6720892,26.3023447 93.7806289,26.029636 C93.8891686,25.7569274 93.9748564,25.5565729 94.0376953,25.4285668 C94.2547747,25.5454419 94.4547132,25.6553587 94.6375169,25.7583201 C94.8203206,25.8612815 95.0174028,25.9684156 95.2287696,26.0797252 C95.1944939,26.1632074 95.1430812,26.2745154 95.0745298,26.4136524 C95.0059784,26.5527896 94.9402843,26.7127948 94.8774455,26.893673 C94.8146068,27.0745513 94.7589096,27.2693403 94.7103523,27.4780459 C94.6617951,27.6867516 94.6375169,27.899628 94.6375169,28.1166819 C94.6375169,28.3448667 94.6660796,28.5786135 94.7232056,28.8179293 C94.7803319,29.0572452 94.8717323,29.2826439 94.9974098,29.4941321 C95.1802135,29.7835373 95.4387055,30.0395458 95.7728935,30.262165 C96.1070815,30.4847844 96.5083867,30.6726166 96.9768212,30.8256674 C97.4452556,30.9787182 97.9765209,31.0955917 98.5706329,31.1762911 C99.1647449,31.2569907 99.813117,31.2973399 100.515769,31.2973399 C101.789682,31.2973399 102.882203,31.1860319 103.793365,30.9634124 C104.704527,30.7407932 105.460009,30.3901729 106.059834,29.9115413 L106.051265,29.9198895 C106.308333,29.7195321 106.53255,29.5024815 106.723922,29.2687313 C106.915295,29.0349809 107.07953,28.7928861 107.216633,28.5424393 C107.353736,28.2919926 107.470843,28.0401582 107.567957,27.7869287 C107.665072,27.5336991 107.750759,27.2846476 107.825023,27.0397662 C108.064953,27.1009865 108.284886,27.1594233 108.484827,27.2150781 C108.684769,27.2707329 108.898989,27.3291696 109.127493,27.3903899 C109.09893,27.5016996 109.073224,27.6032681 109.050373,27.6950987 C109.027523,27.7869292 108.99896,27.9079766 108.964684,28.0582446 C108.896133,28.3866081 108.864714,28.6787917 108.870427,28.9348039 C108.881852,29.1852507 108.92184,29.4496071 108.990391,29.7278813 C109.058943,30.0061556 109.190331,30.2593812 109.38456,30.4875661 L109.375991,30.4792178 C109.793903,30.990763 110.458035,31.2624163 111.368405,31.2941844 Z M114.577301,24.8608904 C114.480187,24.8608904 114.357367,24.8984569 114.208839,24.9735908 C114.060311,25.0487249 113.910357,25.1628156 113.758973,25.3158664 C113.607589,25.4689172 113.46906,25.6609234 113.343382,25.891891 C113.217705,26.1228585 113.12916,26.3913892 113.077747,26.6974907 L113.077747,26.6891425 C113.060609,26.7781902 113.049184,26.8714107 113.043471,26.9688067 C113.037759,27.0662027 113.042043,27.1635972 113.056325,27.2609932 C113.070606,27.358389 113.093456,27.4502182 113.124876,27.5364831 C113.156295,27.6227481 113.203424,27.6992724 113.266262,27.7660582 L113.257693,27.7660582 C113.320532,27.843975 113.410505,27.9163252 113.527613,27.983111 C113.644722,28.0498967 113.777538,28.1097249 113.926066,28.1625969 C114.074594,28.215469 114.233117,28.2586009 114.401639,28.2919938 C114.570161,28.3253867 114.737253,28.3476483 114.902919,28.3587793 C115.051447,28.3699102 115.19426,28.3754756 115.331363,28.3754756 L115.725531,28.3754756 C115.845496,28.3754756 115.984025,28.3740843 116.141122,28.3713015 C116.298219,28.3685188 116.471023,28.3587793 116.659539,28.3420828 C116.636688,28.0415468 116.592416,27.7465806 116.526721,27.4571754 C116.461026,27.1677702 116.378195,26.8936744 116.278224,26.6348794 C116.178253,26.3760844 116.062574,26.1381636 115.931184,25.9211096 C115.799794,25.7040559 115.656981,25.5148321 115.50274,25.3534332 L115.50274,25.3617813 C115.451327,25.3061265 115.391345,25.2490812 115.322794,25.1906436 C115.254242,25.1322061 115.181407,25.0779434 115.104287,25.0278541 C115.027167,24.9777647 114.942907,24.9374156 114.851505,24.9068053 C114.760103,24.8761953 114.668703,24.8608904 114.577301,24.8608904 Z M115.571291,20.4947904 L114.311666,21.7219733 L113.043471,20.4864422 L114.303097,19.2592593 L115.571291,20.4947904 Z M100.901368,24.5520076 L99.6503117,25.7708424 L98.3821175,24.5436594 L99.6331741,23.3164764 L100.901368,24.5520076 Z M103.943321,24.568704 L102.700833,25.7875387 L101.432639,24.5520076 L102.683695,23.3331727 L103.943321,24.568704 Z M85.6573305,32.5996564 C85.6858936,32.1432868 85.7101719,31.7022289 85.7301659,31.2764693 C85.7501601,30.8507099 85.7672978,30.437479 85.7815793,30.0367641 C85.7958607,29.6360493 85.8058578,29.2422972 85.8115704,28.8554961 C85.817283,28.4686951 85.8201393,28.0860738 85.8201393,27.7076209 C85.8201393,26.6668756 85.8015735,25.7110181 85.7644415,24.8400199 C85.7273095,23.9690218 85.6830373,23.2037793 85.6316239,22.5442695 C85.5802104,21.8847597 85.5302256,21.3379591 85.4816684,20.9038514 C85.4331113,20.4697437 85.3974079,20.1636467 85.3745575,19.9855513 L86.7198716,19.7851948 C86.7198716,19.7963258 86.7227279,19.8144133 86.7284404,19.8394581 C86.7341532,19.8645027 86.7398656,19.9090259 86.7455782,19.9730289 C86.7512908,20.037032 86.7612879,20.120513 86.7755693,20.2234745 C86.7898508,20.3264359 86.8055603,20.4586141 86.8226982,20.6200132 C86.8626865,20.9372458 86.8969616,21.2795178 86.9255247,21.6468397 C86.9540879,22.0141616 86.9826505,22.409305 87.0112135,22.8322818 C87.0397766,23.2441276 87.0626268,23.6462277 87.0797646,24.0385942 C87.0969024,24.4309609 87.1111837,24.7968859 87.122609,25.1363804 C87.1340342,25.5259643 87.1440311,25.9350212 87.1526,26.3635634 C87.161169,26.7921056 87.1654533,27.2456858 87.1654533,27.7243173 C87.1654533,28.4700921 87.1540283,29.2534221 87.1311779,30.074331 C87.1083274,30.8952397 87.0654834,31.7620508 87.0026447,32.6747901 L85.6573305,32.5996564 Z M82.0326942,27.5490055 C82.1869348,28.0665954 82.329748,28.5702641 82.4611382,29.0600267 C82.5182643,29.271515 82.5753896,29.4885656 82.6325159,29.7111849 C82.6896419,29.9338043 82.7424828,30.1550289 82.79104,30.3748655 C82.8395973,30.5947021 82.8838693,30.8061874 82.9238578,31.0093276 C82.9638461,31.2124677 82.9952649,31.3975172 83.0181154,31.5644816 C83.0181154,31.6312676 83.0223999,31.6994437 83.0309687,31.7690121 C83.0395376,31.8385807 83.0438221,31.9206704 83.0438221,32.0152836 C83.0438221,32.4772187 82.9738436,32.9280161 82.8338844,33.3676893 C82.6939253,33.8073625 82.5011276,34.2289416 82.255485,34.6324391 C82.0098427,35.0359366 81.7170754,35.422732 81.3771748,35.7928366 C81.0372742,36.1629413 80.667388,36.5121701 80.2675049,36.8405336 C79.8676218,37.1688972 79.4434665,37.4736028 78.9950262,37.7546597 C78.5465858,38.0357166 78.0910116,38.2903336 77.6282898,38.5185185 L77.037037,37.3497729 C77.6368616,37.0492367 78.2166834,36.7055733 78.7765197,36.3187721 C79.336356,35.9319711 79.8333461,35.5117834 80.2675049,35.0581964 C80.7016636,34.6046096 81.050128,34.1218111 81.3129083,33.6097867 C81.5756886,33.0977622 81.7070767,32.5662665 81.7070767,32.0152836 C81.7070767,31.9596287 81.7042204,31.9039748 81.6985079,31.84832 C81.6927953,31.792665 81.6870827,31.7342284 81.6813701,31.6730081 C81.6585196,31.4670852 81.6228163,31.2430778 81.5742591,31.0009793 C81.5257019,30.7588807 81.4700047,30.5112204 81.4071659,30.257991 C81.3443271,30.0047615 81.278633,29.7571012 81.2100816,29.5150027 C81.1415302,29.2729041 81.0758361,29.0475055 81.0129975,28.8387999 C80.9501587,28.6300942 80.8930333,28.4478273 80.8416199,28.2919938 C80.7902062,28.1361603 80.7530748,28.0192868 80.7302244,27.9413701 L82.0326942,27.5490055 Z M82.5811025,23.9509384 L81.3214772,25.1781213 L80.0532828,23.9425902 L81.3129083,22.7154073 L82.5811025,23.9509384 Z" id="دریافت-از" fill="#F1F1F1"></path>
                <g id="cafebazaar" transform="translate(149.629630, 10.370370)" fill="#FFFFFF">
                    <path d="M23.9196135,9.77556425 C24.5867133,11.2061346 25.1671769,12.6737025 25.6393449,13.9562829 C26.7569538,14.0672754 27.4846991,14.1618246 27.4976945,14.1618246 C28.221108,14.2275979 28.9488533,14.3221471 29.6549396,14.4125855 C30.6036074,14.5359105 31.5869299,14.6633464 32.557257,14.7167872 C34.0820567,14.8031147 35.0047338,14.5071347 35.5375473,13.7589628 C35.5245519,13.7260761 35.5115563,13.6973003 35.494229,13.6644136 C34.9874065,12.6243725 32.8518206,10.4168544 23.9196135,9.77556425 L23.9196135,9.77556425 L23.9196135,9.77556425 Z M18.244933,0.81805605 C15.5765336,0.81805605 12.9644478,4.9083363 11.4093255,8.68619313 C11.9984526,8.62864145 12.6179025,8.57520061 13.267675,8.53409225 C14.6841793,5.65650816 16.4255698,3.22289419 18.244933,3.22289419 C20.0556326,3.22289419 21.8316776,5.64417566 23.3001637,8.50531641 C23.9672636,8.54642476 24.6040406,8.59575477 25.2104951,8.64919561 C23.5903954,4.88778212 20.9090006,0.81805605 18.244933,0.81805605 L18.244933,0.81805605 Z M1.420155,13.754852 C1.40282773,13.7918495 1.39849592,13.8247362 1.38550047,13.8617337 C1.92697761,14.5400213 2.82799559,14.7990039 4.28348618,14.7167872 C5.24948141,14.6633464 6.22847209,14.5359105 7.17280824,14.4125855 C7.87889444,14.3221471 8.61097156,14.2275979 9.3300532,14.1618246 C9.34738047,14.1577137 10.0058167,14.0754971 11.0281255,13.9727262 C11.4743027,12.6942567 12.0287753,11.2307996 12.6698843,9.80434009 C3.87196354,10.4908494 1.86633218,12.7107 1.420155,13.754852 L1.420155,13.754852 L1.420155,13.754852 Z M22.3125093,8.4559864 C21.0086323,5.96893159 19.5618055,4.04095024 18.244933,4.04095024 C16.9237287,4.04095024 15.5115563,5.98126409 14.2509975,8.47242973 C15.5462108,8.40665639 16.9497197,8.36965887 18.4788511,8.36965887 L18.5265012,8.36965887 C19.8866917,8.36965887 21.1429187,8.40254556 22.3125093,8.4559864 L22.3125093,8.4559864 L22.3125093,8.4559864 Z M18.5265012,9.59879837 L18.483183,9.59879837 C16.6898107,9.59879837 15.0870382,9.64812839 13.6488749,9.73856674 C13.0294251,11.0951421 12.4662889,12.538045 11.9811253,13.8822878 C13.7831613,13.7137436 16.2306381,13.5328669 18.4225375,13.5328669 C20.545128,13.5328669 22.9059683,13.7014111 24.6863452,13.8658445 C24.1795225,12.5174908 23.5817319,11.0745879 22.9406228,9.71390173 C21.610755,9.63990671 20.1466007,9.59879837 18.5265012,9.59879837 L18.5265012,9.59879837 L18.5265012,9.59879837 Z M0.22024164,13.2985493 C0.952318745,11.5884422 3.42145455,9.62757421 10.4433302,8.78896399 C11.4093255,6.35535001 14.3073112,0 18.244933,0 C22.1738913,0 25.1758404,6.32657418 26.1808221,8.74785564 C33.2806705,9.54535753 35.8494381,11.469228 36.6681516,13.1464485 C37.010365,13.8494012 36.9757105,14.3838096 36.9497197,14.5605755 C36.9237287,14.9428831 36.6161698,18.7330724 35.1043655,23.7359579 C33.7225159,28.3318708 31.4223209,33.4580813 29.8628667,35.4066169 C28.6412942,36.9276256 26.3367676,38.481521 18.483183,38.481521 C10.6339302,38.481521 8.32940344,36.9276256 7.10783098,35.4066169 C5.55270861,33.466303 3.24818187,28.3400924 1.85766853,23.7400687 C0.354527973,18.7412941 0.0469689515,14.9552156 0.0166462313,14.5605755 C-0.00934467195,14.3961421 -0.0396673923,13.927507 0.22024164,13.2985493 L0.22024164,13.2985493 L0.22024164,13.2985493 Z" id="Shape"></path>
                </g>
            </g>
        </g>
    </g>
</svg>