<?xml version="1.0" encoding="UTF-8" standalone="no"?>
<svg width="200px" height="60px" viewBox="0 0 200 60" version="1.1" xmlns="http://www.w3.org/2000/svg" xmlns:xlink="http://www.w3.org/1999/xlink">
    <!-- Generator: Sketch 46.2 (44496) - http://www.bohemiancoding.com/sketch -->
    <title>btn-Google-Play</title>
    <desc>Created with Sketch.</desc>
    <defs>
        <linearGradient x1="91.5361538%" y1="37.7884115%" x2="-37.5592308%" y2="55.9402554%" id="linearGradient-1">
            <stop stop-color="#00A0FF" offset="0%"></stop>
            <stop stop-color="#00A1FF" offset="0.657445%"></stop>
            <stop stop-color="#00BEFF" offset="26.01%"></stop>
            <stop stop-color="#00D2FF" offset="51.22%"></stop>
            <stop stop-color="#00DFFF" offset="76.04%"></stop>
            <stop stop-color="#00E3FF" offset="100%"></stop>
        </linearGradient>
        <linearGradient x1="107.728079%" y1="49.4282353%" x2="-130.665025%" y2="49.4282353%" id="linearGradient-2">
            <stop stop-color="#FFE000" offset="0%"></stop>
            <stop stop-color="#FFBD00" offset="40.87%"></stop>
            <stop stop-color="#FFA500" offset="77.54%"></stop>
            <stop stop-color="#FF9C00" offset="100%"></stop>
        </linearGradient>
        <linearGradient x1="71.6744222%" y1="17.8150459%" x2="-9.496057%" y2="194.392791%" id="linearGradient-3">
            <stop stop-color="#FF3A44" offset="0%"></stop>
            <stop stop-color="#C31162" offset="100%"></stop>
        </linearGradient>
        <linearGradient x1="9.53071913%" y1="-54.5266535%" x2="45.4413004%" y2="24.6901019%" id="linearGradient-4">
            <stop stop-color="#32A071" offset="0%"></stop>
            <stop stop-color="#2DA771" offset="6.85%"></stop>
            <stop stop-color="#15CF74" offset="47.62%"></stop>
            <stop stop-color="#06E775" offset="80.09%"></stop>
            <stop stop-color="#00F076" offset="100%"></stop>
        </linearGradient>
    </defs>
    <g id="Symbols" stroke="none" stroke-width="1" fill="none" fill-rule="evenodd">
        <g id="btn-Google-Play" fill-rule="nonzero">
            <g id="Shape">
                <path d="M192.592593,59.2592593 L7.40740741,59.2592593 C3.25925926,59.2592593 0,56 0,51.8518519 L0,7.40740741 C0,3.25925926 3.25925926,0 7.40740741,0 L192.592593,0 C196.740741,0 200,3.25925926 200,7.40740741 L200,51.8518519 C200,55.8518519 196.740741,59.2592593 192.592593,59.2592593 L192.592593,59.2592593 Z" fill="#000000"></path>
                <path d="M192.592593,1.18518519 C196,1.18518519 198.814815,4 198.814815,7.40740741 L198.814815,51.8518519 C198.814815,55.2592593 196,58.0740741 192.592593,58.0740741 L7.40740741,58.0740741 C4,58.0740741 1.18518519,55.2592593 1.18518519,51.8518519 L1.18518519,7.40740741 C1.18518519,4 4,1.18518519 7.40740741,1.18518519 L192.592593,1.18518519 L192.592593,1.18518519 Z M192.592593,0 L7.40740741,0 C3.25925926,0 0,3.25925926 0,7.40740741 L0,51.8518519 C0,56 3.25925926,59.2592593 7.40740741,59.2592593 L192.592593,59.2592593 C196.740741,59.2592593 200,56 200,51.8518519 L200,7.40740741 C200,3.40740741 196.740741,0 192.592593,0 L192.592593,0 L192.592593,0 Z" fill="#A6A6A6"></path>
                <g transform="translate(60.740741, 8.888889)" stroke-width="0.2" stroke="#FFFFFF" fill="#FFFFFF">
                    <path d="M9.48148148,6.22222222 C9.48148148,7.40740741 9.18518519,8.44444444 8.44444444,9.18518519 C7.55555556,10.0740741 6.51851852,10.5185185 5.18518519,10.5185185 C3.85185185,10.5185185 2.81481481,10.0740741 1.92592593,9.18518519 C1.03703704,8.2962963 0.592592593,7.25925926 0.592592593,5.92592593 C0.592592593,4.59259259 1.03703704,3.55555556 1.92592593,2.66666667 C2.81481481,1.77777778 3.85185185,1.33333333 5.18518519,1.33333333 C5.77777778,1.33333333 6.37037037,1.48148148 6.96296296,1.77777778 C7.55555556,2.07407407 8,2.37037037 8.2962963,2.81481481 L7.55555556,3.55555556 C6.96296296,2.81481481 6.22222222,2.51851852 5.18518519,2.51851852 C4.2962963,2.51851852 3.40740741,2.81481481 2.81481481,3.55555556 C2.07407407,4.14814815 1.77777778,5.03703704 1.77777778,6.07407407 C1.77777778,7.11111111 2.07407407,8 2.81481481,8.59259259 C3.55555556,9.18518519 4.2962963,9.62962963 5.18518519,9.62962963 C6.22222222,9.62962963 6.96296296,9.33333333 7.7037037,8.59259259 C8.14814815,8.14814815 8.44444444,7.55555556 8.44444444,6.81481481 L5.18518519,6.81481481 L5.18518519,5.77777778 L9.48148148,5.77777778 C9.48148148,5.77777778 9.48148148,6.07407407 9.48148148,6.22222222 L9.48148148,6.22222222 Z"></path>
                    <polygon points="16.2962963 2.51851852 12.2962963 2.51851852 12.2962963 5.33333333 16 5.33333333 16 6.37037037 12.2962963 6.37037037 12.2962963 9.18518519 16.2962963 9.18518519 16.2962963 10.3703704 11.1111111 10.3703704 11.1111111 1.48148148 16.2962963 1.48148148"></polygon>
                    <polygon points="21.1851852 10.3703704 20 10.3703704 20 2.51851852 17.4814815 2.51851852 17.4814815 1.48148148 23.7037037 1.48148148 23.7037037 2.51851852 21.1851852 2.51851852"></polygon>
                    <polygon points="28 10.3703704 28 1.48148148 29.1851852 1.48148148 29.1851852 10.3703704"></polygon>
                    <polygon points="34.2222222 10.3703704 33.037037 10.3703704 33.037037 2.51851852 30.5185185 2.51851852 30.5185185 1.48148148 36.5925926 1.48148148 36.5925926 2.51851852 34.0740741 2.51851852 34.0740741 10.3703704"></polygon>
                    <path d="M48.2962963,9.18518519 C47.4074074,10.0740741 46.3703704,10.5185185 45.037037,10.5185185 C43.7037037,10.5185185 42.6666667,10.0740741 41.7777778,9.18518519 C40.8888889,8.2962963 40.4444444,7.25925926 40.4444444,5.92592593 C40.4444444,4.59259259 40.8888889,3.55555556 41.7777778,2.66666667 C42.6666667,1.77777778 43.7037037,1.33333333 45.037037,1.33333333 C46.3703704,1.33333333 47.4074074,1.77777778 48.2962963,2.66666667 C49.1851852,3.55555556 49.6296296,4.59259259 49.6296296,5.92592593 C49.6296296,7.25925926 49.1851852,8.2962963 48.2962963,9.18518519 L48.2962963,9.18518519 Z M42.6666667,8.44444444 C43.2592593,9.03703704 44.1481481,9.48148148 45.037037,9.48148148 C45.9259259,9.48148148 46.8148148,9.18518519 47.4074074,8.44444444 C48,7.85185185 48.4444444,6.96296296 48.4444444,5.92592593 C48.4444444,4.88888889 48.1481481,4 47.4074074,3.40740741 C46.8148148,2.81481481 45.9259259,2.37037037 45.037037,2.37037037 C44.1481481,2.37037037 43.2592593,2.66666667 42.6666667,3.40740741 C42.0740741,4 41.6296296,4.88888889 41.6296296,5.92592593 C41.6296296,6.96296296 41.9259259,7.85185185 42.6666667,8.44444444 L42.6666667,8.44444444 Z"></path>
                    <polygon points="51.2592593 10.3703704 51.2592593 1.48148148 52.5925926 1.48148148 56.8888889 8.44444444 56.8888889 8.44444444 56.8888889 6.66666667 56.8888889 1.48148148 58.0740741 1.48148148 58.0740741 10.3703704 56.8888889 10.3703704 52.2962963 3.11111111 52.2962963 3.11111111 52.2962963 4.88888889 52.2962963 10.3703704"></polygon>
                </g>
                <path d="M100.888889,32.2962963 C97.3333333,32.2962963 94.5185185,34.962963 94.5185185,38.6666667 C94.5185185,42.2222222 97.3333333,45.037037 100.888889,45.037037 C104.444444,45.037037 107.259259,42.3703704 107.259259,38.6666667 C107.259259,34.8148148 104.444444,32.2962963 100.888889,32.2962963 L100.888889,32.2962963 Z M100.888889,42.3703704 C98.962963,42.3703704 97.3333333,40.7407407 97.3333333,38.5185185 C97.3333333,36.2962963 98.962963,34.6666667 100.888889,34.6666667 C102.814815,34.6666667 104.444444,36.1481481 104.444444,38.5185185 C104.444444,40.7407407 102.814815,42.3703704 100.888889,42.3703704 L100.888889,42.3703704 Z M87.1111111,32.2962963 C83.5555556,32.2962963 80.7407407,34.962963 80.7407407,38.6666667 C80.7407407,42.2222222 83.5555556,45.037037 87.1111111,45.037037 C90.6666667,45.037037 93.4814815,42.3703704 93.4814815,38.6666667 C93.4814815,34.8148148 90.6666667,32.2962963 87.1111111,32.2962963 L87.1111111,32.2962963 Z M87.1111111,42.3703704 C85.1851852,42.3703704 83.5555556,40.7407407 83.5555556,38.5185185 C83.5555556,36.2962963 85.1851852,34.6666667 87.1111111,34.6666667 C89.037037,34.6666667 90.6666667,36.1481481 90.6666667,38.5185185 C90.6666667,40.7407407 89.037037,42.3703704 87.1111111,42.3703704 L87.1111111,42.3703704 Z M70.6666667,34.2222222 L70.6666667,36.8888889 L77.037037,36.8888889 C76.8888889,38.3703704 76.2962963,39.5555556 75.5555556,40.2962963 C74.6666667,41.1851852 73.1851852,42.2222222 70.6666667,42.2222222 C66.6666667,42.2222222 63.7037037,39.1111111 63.7037037,35.1111111 C63.7037037,31.1111111 66.8148148,28 70.6666667,28 C72.7407407,28 74.3703704,28.8888889 75.5555556,29.9259259 L77.4814815,28 C75.8518519,26.5185185 73.7777778,25.3333333 70.8148148,25.3333333 C65.4814815,25.3333333 60.8888889,29.7777778 60.8888889,35.1111111 C60.8888889,40.4444444 65.4814815,44.8888889 70.8148148,44.8888889 C73.7777778,44.8888889 75.8518519,44 77.6296296,42.0740741 C79.4074074,40.2962963 80,37.7777778 80,35.8518519 C80,35.2592593 80,34.6666667 79.8518519,34.2222222 L70.6666667,34.2222222 L70.6666667,34.2222222 Z M137.925926,36.2962963 C137.333333,34.8148148 135.851852,32.2962963 132.592593,32.2962963 C129.333333,32.2962963 126.666667,34.8148148 126.666667,38.6666667 C126.666667,42.2222222 129.333333,45.037037 132.888889,45.037037 C135.703704,45.037037 137.481481,43.2592593 138.074074,42.2222222 L136,40.7407407 C135.259259,41.7777778 134.37037,42.5185185 132.888889,42.5185185 C131.407407,42.5185185 130.518519,41.9259259 129.777778,40.5925926 L138.222222,37.037037 L137.925926,36.2962963 L137.925926,36.2962963 Z M129.333333,38.3703704 C129.333333,36 131.259259,34.6666667 132.592593,34.6666667 C133.62963,34.6666667 134.666667,35.2592593 134.962963,36 L129.333333,38.3703704 L129.333333,38.3703704 Z M122.37037,44.4444444 L125.185185,44.4444444 L125.185185,25.9259259 L122.37037,25.9259259 L122.37037,44.4444444 L122.37037,44.4444444 Z M117.925926,33.6296296 L117.925926,33.6296296 C117.185185,32.8888889 116,32.1481481 114.518519,32.1481481 C111.407407,32.1481481 108.444444,34.962963 108.444444,38.5185185 C108.444444,42.0740741 111.259259,44.7407407 114.518519,44.7407407 C116,44.7407407 117.185185,44 117.777778,43.2592593 L117.925926,43.2592593 L117.925926,44.1481481 C117.925926,46.5185185 116.592593,47.8518519 114.518519,47.8518519 C112.888889,47.8518519 111.703704,46.6666667 111.407407,45.6296296 L109.037037,46.6666667 C109.777778,48.2962963 111.555556,50.3703704 114.666667,50.3703704 C117.925926,50.3703704 120.592593,48.4444444 120.592593,43.8518519 L120.592593,32.5925926 L117.925926,32.5925926 L117.925926,33.6296296 L117.925926,33.6296296 Z M114.666667,42.3703704 C112.740741,42.3703704 111.111111,40.7407407 111.111111,38.5185185 C111.111111,36.2962963 112.740741,34.6666667 114.666667,34.6666667 C116.592593,34.6666667 118.074074,36.2962963 118.074074,38.5185185 C118.074074,40.7407407 116.592593,42.3703704 114.666667,42.3703704 L114.666667,42.3703704 Z M150.814815,25.9259259 L144.148148,25.9259259 L144.148148,44.4444444 L146.962963,44.4444444 L146.962963,37.4814815 L150.814815,37.4814815 C153.925926,37.4814815 156.888889,35.2592593 156.888889,31.7037037 C156.888889,28.1481481 153.925926,25.9259259 150.814815,25.9259259 L150.814815,25.9259259 Z M150.962963,34.8148148 L146.962963,34.8148148 L146.962963,28.4444444 L150.962963,28.4444444 C153.037037,28.4444444 154.222222,30.2222222 154.222222,31.5555556 C154.074074,33.1851852 152.888889,34.8148148 150.962963,34.8148148 L150.962963,34.8148148 Z M168,32.1481481 C165.925926,32.1481481 163.851852,33.037037 163.111111,34.962963 L165.62963,36 C166.222222,34.962963 167.111111,34.6666667 168.148148,34.6666667 C169.62963,34.6666667 170.962963,35.5555556 171.111111,37.037037 L171.111111,37.1851852 C170.666667,36.8888889 169.481481,36.4444444 168.296296,36.4444444 C165.62963,36.4444444 162.962963,37.9259259 162.962963,40.5925926 C162.962963,43.1111111 165.185185,44.7407407 167.555556,44.7407407 C169.481481,44.7407407 170.37037,43.8518519 171.111111,42.962963 L171.259259,42.962963 L171.259259,44.4444444 L173.925926,44.4444444 L173.925926,37.3333333 C173.62963,34.0740741 171.111111,32.1481481 168,32.1481481 L168,32.1481481 Z M167.703704,42.3703704 C166.814815,42.3703704 165.481481,41.9259259 165.481481,40.7407407 C165.481481,39.2592593 167.111111,38.8148148 168.444444,38.8148148 C169.62963,38.8148148 170.222222,39.1111111 170.962963,39.4074074 C170.666667,41.1851852 169.185185,42.3703704 167.703704,42.3703704 L167.703704,42.3703704 Z M183.259259,32.5925926 L180.148148,40.5925926 L180,40.5925926 L176.740741,32.5925926 L173.777778,32.5925926 L178.666667,43.8518519 L175.851852,50.0740741 L178.666667,50.0740741 L186.222222,32.5925926 L183.259259,32.5925926 L183.259259,32.5925926 Z M158.37037,44.4444444 L161.185185,44.4444444 L161.185185,25.9259259 L158.37037,25.9259259 L158.37037,44.4444444 L158.37037,44.4444444 Z" fill="#FFFFFF"></path>
                <g transform="translate(13.333333, 10.370370)">
                    <path d="M2.07407407,0.740740741 C1.62962963,1.18518519 1.33333333,1.92592593 1.33333333,2.81481481 L1.33333333,35.5555556 C1.33333333,36.4444444 1.62962963,37.1851852 2.07407407,37.6296296 L2.22222222,37.7777778 L20.5925926,19.4074074 L20.5925926,19.2592593 L20.5925926,19.1111111 L2.07407407,0.740740741 L2.07407407,0.740740741 L2.07407407,0.740740741 Z" fill="url(#linearGradient-1)"></path>
                    <path d="M26.6666667,25.6296296 L20.5925926,19.5555556 L20.5925926,19.2592593 L20.5925926,19.1111111 L26.6666667,13.037037 L26.8148148,13.1851852 L34.0740741,17.3333333 C36.1481481,18.5185185 36.1481481,20.4444444 34.0740741,21.6296296 L26.6666667,25.6296296 L26.6666667,25.6296296 L26.6666667,25.6296296 Z" fill="url(#linearGradient-2)"></path>
                    <path d="M26.8148148,25.4814815 L20.5925926,19.2592593 L2.07407407,37.7777778 C2.81481481,38.5185185 3.85185185,38.5185185 5.18518519,37.9259259 L26.8148148,25.4814815" fill="url(#linearGradient-3)"></path>
                    <path d="M26.8148148,13.037037 L5.18518519,0.740740741 C3.85185185,-2.66453526e-15 2.81481481,0.148148148 2.07407407,0.888888889 L20.5925926,19.2592593 L26.8148148,13.037037 L26.8148148,13.037037 Z" fill="url(#linearGradient-4)"></path>
                    <g id="Group" transform="translate(1.481481, 25.185185)" fill="#000000">
                        <path d="M25.1851852,0.148148148 L3.7037037,12.2962963 C2.51851852,13.037037 1.48148148,12.8888889 0.740740741,12.2962963 L0.740740741,12.2962963 L0.592592593,12.4444444 L0.592592593,12.4444444 L0.740740741,12.5925926 L0.740740741,12.5925926 C1.48148148,13.1851852 2.51851852,13.3333333 3.7037037,12.5925926 L25.1851852,0.148148148 L25.1851852,0.148148148 L25.1851852,0.148148148 Z" id="Shape" opacity="0.2"></path>
                        <path d="M0.592592593,12.2962963 C0.148148148,11.8518519 0,11.1111111 0,10.2222222 L0,10.3703704 C0,11.2592593 0.296296296,12 0.740740741,12.4444444 L0.740740741,12.2962963 L0.592592593,12.2962963 L0.592592593,12.2962963 Z" id="Shape" opacity="0.12"></path>
                    </g>
                    <path d="M34.0740741,21.1851852 L26.6666667,25.3333333 L26.8148148,25.4814815 L34.0740741,21.3333333 C35.1111111,20.7407407 35.5555556,20 35.5555556,19.2592593 L35.5555556,19.2592593 C35.5555556,20 34.962963,20.5925926 34.0740741,21.1851852 L34.0740741,21.1851852 Z" fill="#000000" opacity="0.12"></path>
                    <path d="M5.18518519,0.888888889 L34.0740741,17.3333333 C34.962963,17.9259259 35.5555556,18.5185185 35.5555556,19.2592593 L35.5555556,19.2592593 C35.5555556,18.5185185 35.1111111,17.7777778 34.0740741,17.1851852 L5.18518519,0.740740741 C3.11111111,-0.444444444 1.48148148,0.592592593 1.48148148,2.96296296 L1.48148148,3.11111111 C1.48148148,0.740740741 3.11111111,-0.296296296 5.18518519,0.888888889 L5.18518519,0.888888889 Z" fill="#FFFFFF" opacity="0.25"></path>
                </g>
            </g>
        </g>
    </g>
</svg>