<?xml version="1.0" encoding="UTF-8" standalone="no"?>
<svg width="200px" height="60px" viewBox="0 0 200 60" version="1.1" xmlns="http://www.w3.org/2000/svg" xmlns:xlink="http://www.w3.org/1999/xlink">
    <!-- Generator: Sketch 46.2 (44496) - http://www.bohemiancoding.com/sketch -->
    <title>btn-Direct-link</title>
    <desc>Created with Sketch.</desc>
    <defs></defs>
    <g id="Symbols" stroke="none" stroke-width="1" fill="none" fill-rule="evenodd">
        <g id="btn-Direct-link">
            <g>
                <path d="M7.40740741,59.2592593 C3.25925926,59.2592593 0,56 0,51.8518519 L0,7.40740741 C0,3.25925926 3.25925926,0 7.40740741,0 L192.592593,0 C196.740741,0 200,3.25925926 200,7.40740741 L200,51.8518519 C200,55.8518519 196.740741,59.2592593 192.592593,59.2592593 L7.40740741,59.2592593 Z" id="Shape" fill="#000000" fill-rule="nonzero"></path>
                <path d="M192.592593,1.18518519 C196,1.18518519 198.814815,4 198.814815,7.40740741 L198.814815,51.8518519 C198.814815,55.2592593 196,58.0740741 192.592593,58.0740741 L7.40740741,58.0740741 C4,58.0740741 1.18518519,55.2592593 1.18518519,51.8518519 L1.18518519,7.40740741 C1.18518519,4 4,1.18518519 7.40740741,1.18518519 L192.592593,1.18518519 L192.592593,1.18518519 Z M192.592593,0 L7.40740741,0 C3.25925926,0 0,3.25925926 0,7.40740741 L0,51.8518519 C0,56 3.25925926,59.2592593 7.40740741,59.2592593 L192.592593,59.2592593 C196.740741,59.2592593 200,56 200,51.8518519 L200,7.40740741 C200,3.40740741 196.740741,0 192.592593,0 L192.592593,0 L192.592593,0 Z" id="Shape" fill="#A6A6A6" fill-rule="nonzero"></path>
                <text id="Caption" font-family="IRANSans-Light, IRANSans" font-size="16" font-weight="300" fill="#FFFFFF">
                    <tspan x="17" y="34">دریافت با لینک مستقیم</tspan>
                </text>
            </g>
        </g>
    </g>
</svg>