<?xml version="1.0" encoding="UTF-8" standalone="no"?>
<svg width="200px" height="60px" viewBox="0 0 200 60" version="1.1" xmlns="http://www.w3.org/2000/svg" xmlns:xlink="http://www.w3.org/1999/xlink">
    <!-- Generator: Sketch 46.2 (44496) - http://www.bohemiancoding.com/sketch -->
    <title>btn-Appstore</title>
    <desc>Created with Sketch.</desc>
    <defs></defs>
    <g id="Symbols" stroke="none" stroke-width="1" fill="none" fill-rule="evenodd">
        <g id="btn-Appstore" fill-rule="nonzero">
            <g>
                <path d="M192.884444,59.2592593 L7.00740741,59.2592593 C3.13897248,59.2511022 0.00570429121,56.1158467 0,52.2474074 L0,7.00296296 C0.00490182677,3.13563044 3.14007256,0.00244819432 7.00740741,0 L192.884444,0 C196.745185,0 200,3.14074074 200,7.00148148 L200,52.2459259 C200,56.1066667 196.745185,59.2592593 192.884444,59.2592593 Z" id="Shape" fill="#A6A6A6"></path>
                <path d="M198.565926,52.2488889 C198.565927,53.7547742 197.967311,55.1988959 196.901934,56.2631617 C195.836556,57.3274275 194.39181,57.9245357 192.885926,57.922963 L7.00444444,57.922963 C3.86780431,57.9254193 1.32260705,55.3855273 1.31851852,52.2488889 L1.31851852,7 C1.32260575,3.86100658 3.86841133,1.31851586 7.00740741,1.31851852 L192.884444,1.31851852 C196.025185,1.31851852 198.564444,3.86666667 198.564444,7 L198.567407,52.2488889 L198.565926,52.2488889 Z" id="Shape" fill="#000000"></path>
                <g id="Group" transform="translate(17.777778, 8.888889)" fill="#FFFFFF">
                    <path d="M26.8562963,20.4207407 C26.8118519,15.6459259 30.7674074,13.3244444 30.9451852,13.2148148 C28.7081481,9.95111111 25.2385185,9.50518519 24.0192593,9.46962963 C21.1051852,9.16296296 18.2785185,11.2133333 16.7940741,11.2133333 C15.28,11.2133333 12.9940741,9.49777778 10.5303704,9.54814815 C7.36,9.59703704 4.39407407,11.4325926 2.76740741,14.282963 C-0.58962963,20.0948148 1.91407407,28.6355556 5.13037037,33.3348148 C6.73925926,35.6340741 8.61925926,38.202963 11.08,38.1125926 C13.4859259,38.0133333 14.3837037,36.5777778 17.2903704,36.5777778 C20.1688889,36.5777778 21.0133333,38.1140741 23.522963,38.0562963 C26.1051852,38.0148148 27.7303704,35.7451852 29.2859259,33.4237037 C31.1437037,30.7866667 31.8903704,28.1911111 31.92,28.0577778 C31.8607407,28.037037 26.9022222,26.1466667 26.8533333,20.4222222 L26.8562963,20.4207407 Z M22.1155556,6.37925926 C23.4103704,4.76 24.2962963,2.55703704 24.0503704,0.32 C22.1762963,0.404444444 19.8325926,1.61777778 18.482963,3.20148148 C17.2888889,4.59851852 16.2222222,6.88592593 16.4977778,9.03851852 C18.6014815,9.19407407 20.7644444,7.97481481 22.1155556,6.38074074 L22.1155556,6.37925926 Z" id="Shape"></path>
                </g>
                <g id="Group" transform="translate(62.222222, 26.666667)" fill="#FFFFFF">
                    <path d="M17.2518519,20.0059259 L13.8888889,20.0059259 L12.0444444,14.2133333 L5.63851852,14.2133333 L3.88296296,20.0059259 L0.608888889,20.0059259 L6.95555556,0.29037037 L10.8755556,0.29037037 L17.2533333,20.0059259 L17.2518519,20.0059259 Z M11.4888889,11.7837037 L9.82222222,6.63703704 C9.64444444,6.11111111 9.31555556,4.87407407 8.82962963,2.92296296 L8.77037037,2.92296296 C8.4743358,4.16510965 8.1617153,5.40324488 7.83259259,6.63703704 L6.19555556,11.7851852 L11.4888889,11.7851852 L11.4888889,11.7837037 Z M33.5733333,12.722963 C33.5733333,15.1407407 32.9214815,17.0518519 31.6133333,18.4562963 C30.442963,19.7037037 28.9881481,20.3274074 27.2533333,20.3274074 C25.3807407,20.3274074 24.0355556,19.6562963 23.2162963,18.3125926 L23.157037,18.3125926 L23.157037,25.8 L20,25.8 L20,10.4696296 C20,8.94962963 19.96,7.38814815 19.8814815,5.78814815 L22.6607407,5.78814815 L22.8385185,8.04296296 L22.8977778,8.04296296 C23.9496296,6.3437037 25.5496296,5.49481481 27.6933333,5.49481481 C29.3703704,5.49481481 30.7703704,6.15851852 31.8903704,7.48444444 C33.0133333,8.81185185 33.5733333,10.557037 33.5733333,12.7214815 L33.5733333,12.722963 Z M30.3555556,12.8385185 C30.3555556,11.4548148 30.0444444,10.3140741 29.4192593,9.4162963 C28.7377778,8.48 27.8192593,8.01185185 26.6696296,8.01185185 C25.8903704,8.01185185 25.1822222,8.27259259 24.5511111,8.78666667 C23.9140741,9.30518519 23.4992593,9.9837037 23.3066667,10.8222222 C23.2088889,11.2133333 23.1585185,11.5333333 23.1585185,11.7851852 L23.1585185,14.1555556 C23.1585185,15.1896296 23.477037,16.0622222 24.1111111,16.7748148 C24.7451852,17.4859259 25.5688889,17.8414815 26.5822222,17.8414815 C27.7718519,17.8414815 28.6977778,17.3822222 29.36,16.4681481 C30.0237037,15.5496296 30.3555556,14.3422222 30.3555556,12.8385185 L30.3555556,12.8385185 Z M49.9259259,12.722963 C49.9259259,15.1407407 49.2711111,17.0518519 47.962963,18.4562963 C46.7925926,19.7037037 45.3407407,20.3274074 43.6074074,20.3274074 C41.7333333,20.3274074 40.3881481,19.6562963 39.5703704,18.3125926 L39.5111111,18.3125926 L39.5111111,25.8 L36.3525926,25.8 L36.3525926,10.4696296 C36.3525926,8.94962963 36.3125926,7.38814815 36.2340741,5.78814815 L39.0133333,5.78814815 L39.1911111,8.04296296 L39.2503704,8.04296296 C40.3022222,6.3437037 41.8992593,5.49481481 44.0459259,5.49481481 C45.722963,5.49481481 47.122963,6.15851852 48.2459259,7.48444444 C49.3644444,8.81185185 49.9259259,10.557037 49.9259259,12.7214815 L49.9259259,12.722963 Z M46.7066667,12.8385185 C46.7066667,11.4548148 46.3955556,10.3140741 45.7688889,9.4162963 C45.0874074,8.48 44.1718519,8.01185185 43.0207407,8.01185185 C42.2437809,8.01125365 41.491697,8.28574067 40.8977778,8.78666667 C40.2637037,9.30518519 39.8503704,9.9837037 39.6562963,10.8222222 C39.5585185,11.2133333 39.5081481,11.5333333 39.5081481,11.7851852 L39.5081481,14.1555556 C39.5081481,15.1896296 39.8251852,16.0622222 40.4562963,16.7748148 C41.0903704,17.4859259 41.9140741,17.8414815 42.9303704,17.8414815 C44.12,17.8414815 45.0459259,17.3822222 45.7081481,16.4681481 C46.3718519,15.5496296 46.7037037,14.3422222 46.7037037,12.8385185 L46.7066667,12.8385185 Z M68.2074074,14.477037 C68.2074074,16.1540741 67.6237037,17.5185185 66.4548148,18.5718519 C65.1703704,19.722963 63.3822222,20.2977778 61.0844444,20.2977778 C58.962963,20.2977778 57.2622222,19.8903704 55.9733333,19.0711111 L56.7066667,16.4385185 C58.0933333,17.277037 59.6148148,17.6977778 61.2725926,17.6977778 C62.4607407,17.6977778 63.3866667,17.4281481 64.0518519,16.8918519 C64.7140741,16.3585185 65.0444444,15.637037 65.0444444,14.7392593 C65.0444444,13.9392593 64.7718519,13.2651852 64.2251852,12.7185185 C63.6814815,12.1703704 62.7733333,11.6637037 61.5051852,11.1925926 C58.0533333,9.90666667 56.3288889,8.02222222 56.3288889,5.54074074 C56.3288889,3.92 56.9333333,2.59259259 58.1437037,1.55555556 C59.3496296,0.521481481 60.9585185,0.00444444444 62.9703704,0.00444444444 C64.762963,0.00444444444 66.2548148,0.318518519 67.4444444,0.942222222 L66.6548148,3.51703704 C65.5437037,2.91407407 64.2874074,2.61333333 62.8814815,2.61333333 C61.7703704,2.61333333 60.9022222,2.88592593 60.28,3.43111111 C59.7693887,3.88279492 59.4810623,4.53463986 59.4903704,5.2162963 C59.4903704,5.99555556 59.7911111,6.63851852 60.3940741,7.14666667 C60.9214815,7.61481481 61.8755556,8.12148148 63.2637037,8.66814815 C64.96,9.34962963 66.2059259,10.1496296 67.0074074,11.0651852 C67.8074074,11.9777778 68.2074074,13.12 68.2074074,14.482963 L68.2074074,14.477037 Z M78.6488889,8.16 L75.1674074,8.16 L75.1674074,15.0637037 C75.1674074,16.8177778 75.7807407,17.6948148 77.0103704,17.6948148 C77.5733333,17.6948148 78.042963,17.6459259 78.4133333,17.5466667 L78.4992593,19.9466667 C77.877037,20.1792593 77.0577778,20.2962963 76.042963,20.2962963 C74.7955556,20.2962963 73.8207407,19.9155556 73.117037,19.1555556 C72.4162963,18.3940741 72.0651852,17.117037 72.0651852,15.322963 L72.0651852,8.15703704 L69.9911111,8.15703704 L69.9911111,5.78666667 L72.0651852,5.78666667 L72.0651852,3.18518519 L75.1659259,2.24740741 L75.1659259,5.78814815 L78.6474074,5.78814815 L78.6474074,8.15851852 L78.6488889,8.16 Z M94.3555556,12.7807407 C94.3555556,14.9659259 93.7333333,16.76 92.4844444,18.162963 C91.1762963,19.6074074 89.44,20.3259259 87.2755556,20.3259259 C85.1911111,20.3259259 83.5303704,19.6355556 82.2918519,18.2518519 C81.0533333,16.8681481 80.4340741,15.1214815 80.4340741,13.0162963 C80.4340741,10.8133333 81.0711111,9.00888889 82.3496296,7.60592593 C83.6237037,6.20148148 85.3466667,5.49925926 87.5111111,5.49925926 C89.5955556,5.49925926 91.2740741,6.19111111 92.5407407,7.5762963 C93.7525926,8.92 94.357037,10.6548148 94.357037,12.7807407 L94.3555556,12.7807407 Z M91.0814815,12.8844444 C91.0814815,11.5718519 90.8,10.4474074 90.2325926,9.50962963 C89.5703704,8.37333333 88.6237037,7.80592593 87.397037,7.80592593 C86.1274074,7.80592593 85.162963,8.37481481 84.5007407,9.50962963 C83.9333333,10.4474074 83.6533333,11.5896296 83.6533333,12.9407407 C83.6533333,14.2518519 83.9348148,15.3762963 84.5007407,16.3125926 C85.1822222,17.4474074 86.1377778,18.0133333 87.3688889,18.0133333 C88.5748148,18.0133333 89.5214815,17.4355556 90.2044444,16.282963 C90.7866667,15.3274074 91.0785185,14.1911111 91.0785185,12.8814815 L91.0814815,12.8844444 Z M104.622222,8.56740741 C104.311111,8.50814815 103.977778,8.47851852 103.62963,8.47851852 C102.518519,8.47851852 101.659259,8.89925926 101.051852,9.73777778 C100.527407,10.4785185 100.263704,11.4162963 100.263704,12.5466667 L100.263704,20.0044444 L97.1081481,20.0044444 L97.1377778,10.2651852 C97.1377778,8.62666667 97.0962963,7.13481481 97.0192593,5.79111111 L99.7688889,5.79111111 L99.8844444,8.50962963 L99.9733333,8.50962963 C100.305185,7.5762963 100.832593,6.82074074 101.551111,6.25777778 C102.209747,5.76486234 103.009935,5.49778653 103.832593,5.4962963 C104.125926,5.4962963 104.38963,5.51851852 104.623704,5.55555556 L104.623704,8.56740741 L104.622222,8.56740741 Z M118.74963,12.2251852 C118.757639,12.7053328 118.718938,13.1851215 118.634074,13.6577778 L109.158519,13.6577778 C109.195556,15.0607407 109.653333,16.1348148 110.533333,16.8755556 C111.333333,17.5377778 112.364444,17.8681481 113.632593,17.8681481 C115.035556,17.8681481 116.314074,17.6459259 117.466667,17.197037 L117.961481,19.3896296 C116.616296,19.9748148 115.028148,20.2666667 113.195556,20.2666667 C110.991111,20.2666667 109.260741,19.6177778 108.001481,18.3214815 C106.746667,17.0237037 106.117037,15.2844444 106.117037,13.0992593 C106.117037,10.9555556 106.702222,9.17037037 107.874074,7.74666667 C109.100741,6.22666667 110.758519,5.46518519 112.844444,5.46518519 C114.891852,5.46518519 116.444444,6.22666667 117.496296,7.74666667 C118.33037,8.95407407 118.74963,10.4474074 118.74963,12.2207407 L118.74963,12.2251852 Z M115.737778,11.4059259 C115.758519,10.4681481 115.552593,9.65777778 115.124444,8.9762963 C114.576296,8.09777778 113.736296,7.65777778 112.605926,7.65777778 C111.573333,7.65777778 110.733333,8.08740741 110.091852,8.94666667 C109.565926,9.62814815 109.253333,10.4488889 109.158519,11.402963 L115.736296,11.402963 L115.737778,11.4059259 Z" id="Shape"></path>
                </g>
                <g id="Group" transform="translate(63.703704, 8.888889)" fill="#FFFFFF">
                    <path d="M8.96296296,5.94074074 C8.96296296,7.68296296 8.44,8.99555556 7.39555556,9.87703704 C6.42814815,10.6918519 5.05481481,11.0977778 3.27259259,11.0977778 C2.38814815,11.0977778 1.63259259,11.0607407 1,10.9837037 L1,1.45777778 C1.82518519,1.32444444 2.71407407,1.25481481 3.67407407,1.25481481 C5.37185185,1.25481481 6.65185185,1.62518519 7.51111111,2.36148148 C8.47851852,3.19555556 8.96296296,4.38814815 8.96296296,5.94074074 L8.96296296,5.94074074 Z M7.32592593,5.98222222 C7.32592593,4.85185185 7.02666667,3.98518519 6.42814815,3.38074074 C5.82814815,2.77777778 4.95407407,2.47703704 3.80296296,2.47703704 C3.31407407,2.47703704 2.89925926,2.50666667 2.55259259,2.5762963 L2.55259259,9.81777778 C2.74518519,9.84740741 3.09333333,9.86222222 3.60148148,9.86222222 C4.78962963,9.86222222 5.70518519,9.53037037 6.35259259,8.86962963 C6.99703704,8.20888889 7.32296296,7.24592593 7.32296296,5.98074074 L7.32592593,5.98222222 Z M17.6444444,7.46222222 C17.6444444,8.5362963 17.3362963,9.41777778 16.722963,10.1066667 C16.08,10.8177778 15.2266667,11.1703704 14.1644444,11.1703704 C13.1422222,11.1703704 12.3244444,10.8296296 11.7155556,10.1481481 C11.1081481,9.46962963 10.8044444,8.61185185 10.8044444,7.57777778 C10.8044444,6.4962963 11.1155556,5.60740741 11.7451852,4.92 C12.3733333,4.23259259 13.2177778,3.88740741 14.2814815,3.88740741 C15.3037037,3.88740741 16.1288889,4.22814815 16.7525926,4.90666667 C17.3451852,5.56888889 17.6414815,6.42222222 17.6414815,7.46518519 L17.6444444,7.46222222 Z M16.0325926,7.51259259 C16.0325926,6.86962963 15.8933333,6.31703704 15.6177778,5.8562963 C15.2918519,5.29925926 14.8266667,5.02074074 14.2251852,5.02074074 C13.6,5.02074074 13.1259259,5.29925926 12.8,5.8562963 C12.5214815,6.31555556 12.3851852,6.87851852 12.3851852,7.54222222 C12.3851852,8.18666667 12.522963,8.73925926 12.8,9.20148148 C13.1362963,9.75703704 13.6044444,10.0355556 14.2074074,10.0355556 C14.8,10.0355556 15.2666667,9.75407407 15.6,9.18518519 C15.8888889,8.71407407 16.0325926,8.15703704 16.0325926,7.51111111 L16.0325926,7.51259259 Z M29.2814815,4.02962963 L27.0962963,11.0118519 L25.6740741,11.0118519 L24.7703704,7.97925926 C24.5442839,7.23727449 24.356383,6.48418747 24.2074074,5.72296296 L24.1777778,5.72296296 C24.0443322,6.48728005 23.8572022,7.24124551 23.6177778,7.97925926 L22.6548148,11.0118519 L21.2177778,11.0118519 L19.162963,4.02962963 L20.7585185,4.02962963 L21.5481481,7.34814815 C21.7407407,8.13333333 21.8962963,8.88148148 22.0222222,9.58962963 L22.0518519,9.58962963 C22.1659259,9.00592593 22.357037,8.26222222 22.6266667,7.36296296 L23.6192593,4.02962963 L24.882963,4.02962963 L25.8311111,7.29185185 C26.0622222,8.08740741 26.2488889,8.85333333 26.3940741,9.59111111 L26.4355556,9.59111111 C26.5392593,8.87259259 26.6992593,8.10666667 26.9096296,7.29185185 L27.757037,4.02962963 L29.282963,4.02962963 L29.2814815,4.02962963 Z M37.3303704,11.0118519 L35.7777778,11.0118519 L35.7777778,7.01185185 C35.7777778,5.77925926 35.3096296,5.16296296 34.3703704,5.16296296 C33.9381715,5.15027699 33.5243139,5.33779765 33.2488889,5.67111111 C32.962963,6.01185185 32.8192593,6.41185185 32.8192593,6.86814815 L32.8192593,11.0103704 L31.2637037,11.0103704 L31.2637037,6.0237037 C31.2624897,5.35667869 31.2442121,4.68979387 31.2088889,4.0237037 L32.5718519,4.0237037 L32.6459259,5.11703704 L32.6903704,5.11703704 C32.8681481,4.7762963 33.1392593,4.49777778 33.4933333,4.27259259 C33.9159541,4.0115473 34.4040296,3.87591367 34.9007407,3.88148148 C35.5525926,3.88148148 36.0948148,4.09185185 36.5259259,4.51407407 C37.0622222,5.03259259 37.3303704,5.80296296 37.3303704,6.82814815 L37.3303704,11.0103704 L37.3303704,11.0118519 Z M41.6118519,11.0118519 L40.0592593,11.0118519 L40.0592593,0.823703704 L41.6118519,0.823703704 L41.6118519,11.0118519 L41.6118519,11.0118519 Z M50.7525926,7.46222222 C50.7525926,8.5362963 50.4459259,9.41777778 49.8340741,10.1066667 C49.1896296,10.8177778 48.3377778,11.1703704 47.2740741,11.1703704 C46.2474074,11.1703704 45.4311111,10.8296296 44.8237037,10.1481481 C44.2162963,9.46962963 43.9125926,8.61185185 43.9125926,7.57777778 C43.9125926,6.4962963 44.2266667,5.60740741 44.8548148,4.92 C45.482963,4.23259259 46.3274074,3.88740741 47.3881481,3.88740741 C48.4162963,3.88740741 49.24,4.22814815 49.8622222,4.90666667 C50.4548148,5.56888889 50.7540741,6.42222222 50.7540741,7.46518519 L50.7525926,7.46222222 Z M49.1407407,7.51259259 C49.1407407,6.86962963 49.0014815,6.31703704 48.7259259,5.8562963 C48.4,5.29925926 47.9348148,5.02074074 47.3333333,5.02074074 C46.7081481,5.02074074 46.2340741,5.29925926 45.9111111,5.8562963 C45.6296296,6.31555556 45.4933333,6.87851852 45.4933333,7.54222222 C45.4933333,8.18666667 45.6325926,8.73925926 45.9081481,9.20148148 C46.2459259,9.75703704 46.7140741,10.0355556 47.3185185,10.0355556 C47.9111111,10.0355556 48.3748148,9.75407407 48.7111111,9.18518519 C48.9985185,8.71407407 49.1407407,8.15703704 49.1407407,7.51111111 L49.1407407,7.51259259 Z M58.2666667,11.0118519 L56.8740741,11.0118519 L56.7555556,10.2074074 L56.7140741,10.2074074 C56.237037,10.8488889 55.5585185,11.1703704 54.6740741,11.1703704 C54.0148148,11.1703704 53.4814815,10.9585185 53.08,10.5377778 C52.7153188,10.1555275 52.5180449,9.64368152 52.5318519,9.11555556 C52.5318519,8.26222222 52.8874074,7.61185185 53.602963,7.16 C54.317037,6.71111111 55.3214815,6.49037037 56.6148148,6.50074074 L56.6148148,6.37037037 C56.6148148,5.45185185 56.1318519,4.99259259 55.162963,4.99259259 C54.4755556,4.99259259 53.8681481,5.16444444 53.3437037,5.50814815 L53.0281481,4.48888889 C53.677037,4.08888889 54.48,3.88592593 55.4237037,3.88592593 C57.2488889,3.88592593 58.1644444,4.84888889 58.1644444,6.77481481 L58.1644444,9.34666667 C58.1644444,10.042963 58.1985185,10.5985185 58.2651852,11.0103704 L58.2666667,11.0118519 Z M56.6548148,8.61185185 L56.6548148,7.53481481 C54.9422222,7.50518519 54.0859259,7.97481481 54.0859259,8.94222222 C54.0859259,9.30666667 54.1837037,9.57925926 54.3822222,9.76148148 C54.5913308,9.94611204 54.8634705,10.0431911 55.1422222,10.0325926 C55.482963,10.0325926 55.802963,9.92444444 56.0933333,9.70962963 C56.4510003,9.45865723 56.6616823,9.04727284 56.6562963,8.61037037 L56.6548148,8.61185185 Z M67.0888889,11.0118519 L65.7111111,11.0118519 L65.637037,9.89037037 L65.5955556,9.89037037 C65.1555556,10.7437037 64.4059259,11.1703704 63.3525926,11.1703704 C62.5111111,11.1703704 61.8118519,10.84 61.2548148,10.1777778 C60.6992593,9.51851852 60.4222222,8.66074074 60.4222222,7.60740741 C60.4222222,6.47703704 60.722963,5.56296296 61.3259259,4.86222222 C61.9125926,4.21037037 62.6296296,3.88444444 63.482963,3.88444444 C64.4222222,3.88444444 65.0785185,4.2 65.4533333,4.83259259 L65.482963,4.83259259 L65.482963,0.823703704 L67.0355556,0.823703704 L67.0355556,9.13037037 C67.0355556,9.81185185 67.0533333,10.437037 67.0903704,11.0118519 L67.0888889,11.0118519 Z M65.4814815,8.06666667 L65.4814815,6.90222222 C65.5110013,6.35800818 65.2880018,5.83057067 64.877037,5.47259259 C64.5905064,5.21937806 64.2193493,5.08296989 63.837037,5.09037037 C63.2592593,5.09037037 62.8044444,5.32 62.4711111,5.78074074 C62.1407407,6.24 61.9733333,6.82962963 61.9733333,7.54814815 C61.9733333,8.23851852 62.1318519,8.79851852 62.4503704,9.22962963 C62.7866667,9.68888889 63.24,9.92 63.8074074,9.92 C64.317037,9.92 64.7259259,9.72740741 65.0340741,9.34518519 C65.3333333,8.98962963 65.4785185,8.56444444 65.4785185,8.06666667 L65.4814815,8.06666667 Z M80.3674074,7.46222222 C80.3674074,8.5362963 80.0607407,9.41777778 79.4488889,10.1066667 C78.8044444,10.8177778 77.9525926,11.1703704 76.8888889,11.1703704 C75.8666667,11.1703704 75.0488889,10.8296296 74.4385185,10.1481481 C73.8311111,9.46962963 73.5274074,8.61185185 73.5274074,7.57777778 C73.5274074,6.4962963 73.8414815,5.60740741 74.4696296,4.92 C75.0977778,4.23259259 75.9422222,3.88740741 77.0074074,3.88740741 C78.0296296,3.88740741 78.8548148,4.22814815 79.477037,4.90666667 C80.0696296,5.56888889 80.3659259,6.42222222 80.3659259,7.46518519 L80.3674074,7.46222222 Z M78.7585185,7.51259259 C78.7585185,6.86962963 78.6192593,6.31703704 78.3437037,5.8562963 C78.0148148,5.29925926 77.5525926,5.02074074 76.9481481,5.02074074 C76.3259259,5.02074074 75.8518519,5.29925926 75.5259259,5.8562963 C75.2444444,6.31555556 75.1081481,6.87851852 75.1081481,7.54222222 C75.1081481,8.18666667 75.2474074,8.73925926 75.522963,9.20148148 C75.8607407,9.75703704 76.3288889,10.0355556 76.9333333,10.0355556 C77.5259259,10.0355556 77.9925926,9.75407407 78.3259259,9.18518519 C78.6133333,8.71407407 78.7585185,8.15703704 78.7585185,7.51111111 L78.7585185,7.51259259 Z M88.7155556,11.0118519 L87.1644444,11.0118519 L87.1644444,7.01185185 C87.1644444,5.77925926 86.6962963,5.16296296 85.757037,5.16296296 C85.3246572,5.14937265 84.91042,5.33706532 84.6355556,5.67111111 C84.3466667,6.01185185 84.202963,6.41185185 84.202963,6.86814815 L84.202963,11.0103704 L82.6474074,11.0103704 L82.6474074,6.0237037 C82.6474074,5.41037037 82.6325926,4.74518519 82.5940741,4.0237037 L83.957037,4.0237037 L84.0311111,5.11703704 L84.0725926,5.11703704 C84.2624946,4.77020702 84.5398231,4.47908868 84.877037,4.27259259 C85.2992593,4.01333333 85.7688889,3.88148148 86.2844444,3.88148148 C86.9362963,3.88148148 87.4785185,4.09185185 87.9096296,4.51407407 C88.4474074,5.03259259 88.7140741,5.80296296 88.7140741,6.82814815 L88.7140741,11.0103704 L88.7155556,11.0118519 Z M99.1644444,5.19111111 L97.4548148,5.19111111 L97.4548148,8.5837037 C97.4548148,9.44592593 97.7585185,9.87703704 98.3585185,9.87703704 C98.64,9.87703704 98.8696296,9.85333333 99.0518519,9.80296296 L99.0918519,10.9822222 C98.7851852,11.0977778 98.3807407,11.1555556 97.8859259,11.1555556 C97.2725926,11.1555556 96.7955556,10.9688889 96.4488889,10.5955556 C96.1037037,10.2222222 95.9303704,9.59407407 95.9303704,8.71407407 L95.9303704,5.18962963 L94.9111111,5.18962963 L94.9111111,4.02962963 L95.9333333,4.02962963 L95.9333333,2.74814815 L97.4533333,2.28888889 L97.4533333,4.02666667 L99.1644444,4.02666667 L99.1644444,5.19111111 L99.1644444,5.19111111 Z M107.383704,11.0118519 L105.828148,11.0118519 L105.828148,7.04148148 C105.828148,5.78962963 105.361481,5.16296296 104.423704,5.16296296 C103.703704,5.16296296 103.211852,5.52592593 102.942222,6.25185185 C102.897778,6.40444444 102.868148,6.59259259 102.868148,6.81037037 L102.868148,11.0103704 L101.318519,11.0103704 L101.318519,0.823703704 L102.86963,0.823703704 L102.86963,5.03111111 L102.899259,5.03111111 C103.388148,4.26666667 104.088889,3.88444444 104.997037,3.88444444 C105.64,3.88444444 106.171852,4.09481481 106.594074,4.51703704 C107.121481,5.04148148 107.385185,5.8237037 107.385185,6.85777778 L107.385185,11.0103704 L107.383704,11.0118519 Z M115.862222,7.18962963 C115.862222,7.46814815 115.841481,7.70222222 115.802963,7.89333333 L111.148148,7.89333333 C111.168889,8.5837037 111.391111,9.10814815 111.822222,9.47407407 C112.216296,9.8 112.725926,9.96296296 113.348148,9.96296296 C114.035556,9.96296296 114.663704,9.85333333 115.22963,9.63259259 L115.472593,10.7111111 C114.81037,10.9985185 114.031111,11.1407407 113.128889,11.1407407 C112.047407,11.1407407 111.195556,10.8237037 110.580741,10.1866667 C109.958519,9.54962963 109.653333,8.69481481 109.653333,7.6237037 C109.653333,6.56888889 109.939259,5.69185185 110.515556,4.99259259 C111.117037,4.24592593 111.93037,3.87259259 112.957037,3.87259259 C113.961481,3.87259259 114.724444,4.24592593 115.238519,4.99259259 C115.656296,5.58518519 115.860741,6.31851852 115.860741,7.18962963 L115.862222,7.18962963 Z M114.380741,6.78962963 C114.40275,6.37042837 114.297949,5.9543206 114.08,5.59555556 C113.81037,5.16592593 113.398519,4.94814815 112.844444,4.94814815 C112.35287,4.93977116 111.889476,5.17702431 111.608889,5.58074074 C111.346,5.9323957 111.1869,6.35067478 111.14963,6.78814815 L114.379259,6.78814815 L114.380741,6.78962963 Z" id="Shape"></path>
                </g>
            </g>
        </g>
    </g>
</svg>